# Blender v3.4.0 OBJ File: 'untitled.blend'
# www.blender.org
o banco2.004_Cube.325
v 0.485114 -0.121644 0.091597
v 0.485114 -0.121644 0.184973
v 0.485114 -0.003346 0.091597
v 0.485114 -0.015892 0.184973
v 0.433741 -0.121644 0.091597
v 0.433741 -0.121644 0.184973
v 0.433741 -0.003346 0.091597
v 0.433741 -0.015892 0.184973
v 0.485114 -0.121644 -0.313320
v 0.485114 -0.003346 -0.313320
v 0.433741 -0.121644 -0.313320
v 0.433741 -0.003346 -0.313320
v 0.485114 0.130957 0.082158
v 0.433741 0.130957 0.082158
v 0.485114 0.130957 -0.313320
v 0.433741 0.130957 -0.313320
v 0.484941 0.141495 0.074531
v 0.434556 0.141495 0.074531
v 0.485352 0.141495 -0.305693
v 0.434556 0.141495 -0.305693
v 0.484973 0.153538 0.047950
v 0.434524 0.153538 0.047950
v 0.485384 0.153538 -0.279112
v 0.434524 0.153538 -0.279112
v 0.484358 -0.116680 0.193625
v 0.484358 -0.020856 0.193625
v 0.434497 -0.116680 0.193625
v 0.434497 -0.020856 0.193625
v 0.483074 -0.102920 0.202277
v 0.483074 -0.034616 0.202277
v 0.435438 -0.102920 0.202277
v 0.435438 -0.034616 0.202277
v 0.481326 -0.084709 0.208570
v 0.481326 -0.052827 0.208570
v 0.438215 -0.084709 0.208570
v 0.438215 -0.052827 0.208570
v 0.485114 -0.121644 0.116370
v 0.485114 -0.013801 0.116370
v 0.433741 -0.013801 0.116370
v 0.433741 -0.121644 0.116370
v 0.485114 0.024253 0.081372
v 0.485114 0.024253 -0.313320
v 0.433741 0.024253 -0.313320
v 0.433741 0.024253 0.081372
v 0.459768 -0.110505 -0.133476
v 0.459768 -0.110505 0.084257
v 0.459768 -0.053596 -0.133476
v 0.459768 -0.053596 0.084257
v -0.447604 -0.110505 -0.133476
v -0.447604 -0.110505 0.084257
v -0.447604 -0.053596 -0.133476
v -0.447604 -0.053596 0.084257
v 0.459768 -0.110505 -0.165567
v 0.459768 -0.053596 -0.165567
v -0.447604 -0.110505 -0.165567
v -0.447604 -0.053596 -0.165567
v 0.482266 -0.119423 0.084257
v 0.482266 -0.029867 0.084257
v -0.470102 -0.119423 0.084257
v -0.470102 -0.029867 0.084257
v 0.482266 -0.119423 0.117685
v 0.482266 -0.029867 0.117685
v -0.470102 -0.119423 0.117685
v -0.470102 -0.029867 0.117685
v 0.459768 0.135362 -0.127608
v -0.447604 0.135362 -0.127608
v 0.459768 0.138022 -0.159637
v -0.447604 0.138022 -0.159637
v 0.455002 0.143245 -0.130078
v -0.442838 0.143245 -0.130078
v 0.455002 0.145435 -0.156448
v -0.442838 0.145435 -0.156448
v 0.445067 0.148887 -0.135733
v -0.432903 0.148887 -0.135733
v 0.445067 0.150098 -0.150309
v -0.432903 0.150098 -0.150309
v -0.438349 -0.121644 0.091597
v -0.438349 -0.121644 0.184973
v -0.438349 -0.003346 0.091597
v -0.438349 -0.015892 0.184973
v -0.489722 -0.121644 0.091597
v -0.489722 -0.121644 0.184973
v -0.489722 -0.003346 0.091597
v -0.489722 -0.015892 0.184973
v -0.438349 -0.121644 -0.313320
v -0.438349 -0.003346 -0.313320
v -0.489722 -0.121644 -0.313320
v -0.489722 -0.003346 -0.313320
v -0.438349 0.130957 0.082158
v -0.489722 0.130957 0.082158
v -0.438349 0.130957 -0.313320
v -0.489722 0.130957 -0.313320
v -0.438522 0.141495 0.074531
v -0.488907 0.141495 0.074531
v -0.438111 0.141495 -0.305693
v -0.488907 0.141495 -0.305693
v -0.438490 0.153538 0.047950
v -0.488939 0.153538 0.047950
v -0.438078 0.153538 -0.279112
v -0.488939 0.153538 -0.279112
v -0.439105 -0.116680 0.193625
v -0.439105 -0.020856 0.193625
v -0.488966 -0.116680 0.193625
v -0.488966 -0.020856 0.193625
v -0.440389 -0.102920 0.202277
v -0.440389 -0.034616 0.202277
v -0.488025 -0.102920 0.202277
v -0.488025 -0.034616 0.202277
v -0.442137 -0.084710 0.208570
v -0.442137 -0.052827 0.208570
v -0.485248 -0.084710 0.208570
v -0.485248 -0.052827 0.208570
v -0.438349 -0.121644 0.116370
v -0.438349 -0.013801 0.116370
v -0.489722 -0.013801 0.116370
v -0.489722 -0.121644 0.116370
v -0.438349 0.024253 0.081372
v -0.438349 0.024253 -0.313320
v -0.489722 0.024253 -0.313320
v -0.489722 0.024253 0.081372
vn 0.2935 -0.9239 0.2457
vn 0.5831 -0.2399 0.7762
vn 0.2808 -0.8840 0.3737
vn 0.7394 -0.2642 0.6192
vn 0.5401 -0.2485 0.8041
vn 0.7007 -0.2799 0.6563
vn 0.2531 -0.8911 0.3767
vn 0.2646 -0.9319 0.2479
vn 0.8025 -0.0777 0.5916
vn 0.2250 -0.7922 -0.5673
vn 0.3684 -0.0357 -0.9290
vn 0.5555 -0.3004 0.7754
vn 0.4052 -0.0351 -0.9136
vn 0.2678 -0.9430 0.1974
vn 0.2500 -0.7872 -0.5637
vn 0.2968 -0.9347 0.1957
vn 0.3929 0.2467 -0.8859
vn 0.2792 0.9460 0.1649
vn 0.7587 0.4763 0.4443
vn 0.8328 -0.0721 0.5489
vn 0.2386 0.8086 -0.5378
vn 0.2607 0.9552 0.1399
vn 0.7213 0.5064 0.4724
vn 0.2145 0.8133 -0.5409
vn 0.2515 0.9535 0.1664
vn 0.2515 0.9535 0.1663
vn 0.7214 0.5063 0.4725
vn 0.3569 0.2506 -0.8999
vn 0.2052 0.8390 -0.5040
vn 0.2192 0.8707 -0.4402
vn 0.2280 0.8347 -0.5014
vn 0.2145 0.8132 -0.5410
vn 0.2352 0.9617 0.1408
vn 0.2431 0.9664 0.0839
vn 0.1972 0.8750 -0.4422
vn 0.2191 0.9720 0.0844
vn 0.1972 0.8749 -0.4423
vn 0.2875 -0.8697 0.4013
vn 0.2835 -0.8415 0.4598
vn 0.2600 -0.8768 0.4045
vn 0.5141 -0.3099 0.7998
vn 0.2600 -0.8768 0.4046
vn 0.2836 -0.8415 0.4598
vn 0.4065 -0.6153 0.6754
vn 0.3219 -0.7813 0.5348
vn 0.5034 -0.4529 0.7358
vn 0.4649 -0.4641 0.7540
vn 0.3117 -0.8338 0.4556
vn 0.3499 -0.7730 0.5292
vn 0.4391 -0.6050 0.6642
vn 0.3218 -0.7813 0.5348
vn 0.7395 -0.2642 0.6192
vn 0.8025 -0.0777 0.5915
vn 0.2996 -0.9044 -0.3037
vn 0.5306 -0.7767 0.3394
vn 0.3083 -0.9306 0.1973
vn 0.4898 -0.7168 -0.4963
vn -0.5204 -0.7824 0.3420
vn -0.4797 -0.7215 -0.4993
vn -0.4798 -0.7214 -0.4994
vn -0.3009 -0.9330 0.1977
vn -0.2924 -0.9066 -0.3043
vn -0.2854 -0.8847 -0.3685
vn 0.7113 -0.5532 0.4336
vn -0.7022 -0.5604 0.4391
vn 0.4602 -0.6735 -0.5784
vn -0.4506 -0.6773 -0.5816
vn 0.2925 -0.8827 -0.3677
vn 0.2449 0.9230 -0.2968
vn 0.4897 -0.7168 -0.4963
vn -0.2940 -0.9379 0.1840
vn -0.6455 -0.5149 0.5641
vn -0.7022 -0.5602 0.4394
vn -0.3009 -0.9329 0.1978
vn -0.2941 -0.9379 0.1840
vn 0.5307 -0.7766 0.3395
vn 0.3010 -0.9358 0.1836
vn 0.2963 -0.9212 0.2523
vn 0.6551 -0.5094 0.5580
vn 0.7113 -0.5531 0.4338
vn -0.2894 -0.9232 0.2530
vn 0.6550 -0.5094 0.5581
vn -0.2469 0.9374 -0.2457
vn -0.2263 0.9332 -0.2791
vn -0.2387 0.9245 -0.2973
vn 0.2531 0.9358 -0.2453
vn 0.2532 0.9358 -0.2453
vn -0.2321 0.9431 -0.2381
vn -0.2161 0.9406 -0.2619
vn 0.2382 0.9417 -0.2377
vn 0.2322 0.9319 -0.2787
vn 0.2249 0.9445 -0.2394
vn -0.2190 0.9458 -0.2397
vn 0.2218 0.9394 -0.2615
vn -0.2673 -0.9312 0.2477
vn -0.5441 -0.2477 0.8016
vn -0.7044 -0.2785 0.6529
vn -0.5867 -0.2391 0.7737
vn -0.7427 -0.2628 0.6160
vn -0.7426 -0.2628 0.6160
vn -0.2832 -0.8834 0.3735
vn -0.5868 -0.2390 0.7737
vn -0.2960 -0.9231 0.2455
vn -0.2556 -0.8905 0.3765
vn -0.8352 -0.0717 0.5453
vn -0.2523 -0.7867 -0.5634
vn -0.2994 -0.9339 0.1955
vn -0.5181 -0.3090 0.7976
vn -0.5442 -0.2477 0.8016
vn -0.3718 -0.0356 -0.9276
vn -0.4084 -0.0351 -0.9121
vn -0.2272 -0.7918 -0.5670
vn -0.2704 -0.9423 0.1973
vn -0.3602 0.2502 -0.8987
vn -0.2540 0.9528 0.1662
vn -0.2167 0.8129 -0.5407
vn -0.2272 -0.7917 -0.5670
vn -0.2372 0.9612 0.1408
vn -0.2068 0.8387 -0.5038
vn -0.7618 0.4738 0.4419
vn -0.2407 0.8081 -0.5376
vn -0.3960 0.2463 -0.8846
vn -0.7249 0.5038 0.4698
vn -0.2814 0.9453 0.1650
vn -0.2167 0.8128 -0.5407
vn -0.2296 0.8343 -0.5012
vn -0.1988 0.8747 -0.4421
vn -0.2627 0.9547 0.1399
vn -0.2210 0.9716 0.0843
vn -0.2208 0.8704 -0.4400
vn -0.2449 0.9659 0.0839
vn -0.1987 0.8747 -0.4421
vn -0.2626 -0.8762 0.4042
vn -0.3146 -0.8330 0.4552
vn -0.2900 -0.8690 0.4009
vn -0.5592 -0.2995 0.7730
vn -0.2626 -0.8761 0.4043
vn -0.5181 -0.3090 0.7975
vn -0.4419 -0.6041 0.6631
vn -0.5072 -0.4517 0.7339
vn -0.4690 -0.4630 0.7521
vn -0.2865 -0.8408 0.4594
vn -0.4691 -0.4629 0.7521
vn -0.3244 -0.7806 0.5343
vn -0.4096 -0.6144 0.6744
vn -0.3244 -0.7805 0.5343
vn -0.4095 -0.6144 0.6744
vn -0.3524 -0.7723 0.5286
vn -0.2673 -0.9313 0.2477
vn -0.8055 -0.0772 0.5876
vn -0.7045 -0.2785 0.6528
vn -0.7250 0.5036 0.4698
s 1
f 37//1 4//2 2//3
f 38//4 8//5 39//6
f 39//6 6//7 40//8
f 40//8 2//3 6//7
f 7//9 11//10 12//11
f 8//5 26//12 4//2
f 10//13 11//10 12//11
f 5//14 9//15 1//16
f 42//17 13//18 41//19
f 1//16 10//13 3//20
f 15//21 17//22 13//18
f 44//23 16//24 14//25
f 41//19 14//26 44//27
f 43//28 15//21 42//17
f 20//29 23//30 19//31
f 16//32 19//31 15//21
f 14//25 20//29 18//33
f 13//18 18//33 14//26
f 21//34 24//35 22//36
f 18//33 24//37 22//36
f 17//22 22//36 18//33
f 19//31 21//34 17//22
f 25//38 31//39 27//40
f 6//7 28//41 27//42
f 4//2 25//38 2//3
f 2//3 27//40 6//7
f 31//43 36//44 35//45
f 28//41 30//46 26//12
f 27//42 32//47 31//43
f 26//12 29//48 25//38
f 36//44 33//49 34//50
f 30//46 33//49 29//48
f 29//48 35//51 31//39
f 32//47 34//50 30//46
f 5//14 37//1 40//8
f 7//9 40//8 5//14
f 3//20 39//6 38//52
f 1//16 38//52 37//1
f 12//11 42//17 10//13
f 3//20 44//27 7//53
f 7//9 43//28 44//23
f 10//13 41//19 3//20
f 45//54 48//55 46//56
f 47//57 52//58 51//59
f 51//60 50//61 52//58
f 49//62 46//56 50//61
f 51//60 55//63 49//62
f 52//58 58//64 60//65
f 54//66 55//63 56//67
f 49//62 53//68 45//54
f 56//67 67//69 54//66
f 45//54 54//66 47//70
f 59//71 64//72 60//73
f 50//74 60//65 59//75
f 48//76 57//77 58//64
f 46//56 59//75 57//77
f 64//72 61//78 62//79
f 58//80 61//78 57//77
f 57//77 63//81 59//71
f 60//65 62//82 64//72
f 66//83 72//84 68//85
f 54//66 65//86 47//70
f 51//60 68//85 56//67
f 47//57 66//83 65//87
f 70//88 76//89 72//84
f 65//86 70//88 66//83
f 67//69 69//90 65//86
f 68//85 71//91 67//69
f 73//92 76//89 74//93
f 69//90 74//93 70//88
f 71//91 73//92 69//90
f 72//84 75//94 71//91
f 113//95 80//96 114//97
f 114//97 84//98 115//99
f 115//100 82//101 84//102
f 116//103 78//104 82//101
f 83//105 87//106 81//107
f 84//102 102//108 80//109
f 86//110 87//106 88//111
f 81//107 85//112 77//113
f 118//114 89//115 91//116
f 77//113 86//110 85//117
f 91//116 93//118 95//119
f 120//120 92//121 119//122
f 117//123 90//124 120//120
f 119//122 91//125 118//114
f 96//126 99//127 95//119
f 92//121 95//119 91//125
f 90//124 96//126 92//121
f 89//115 94//128 90//124
f 97//129 100//130 98//131
f 94//128 100//130 96//126
f 93//118 98//131 94//128
f 95//119 97//129 99//132
f 101//133 107//134 103//135
f 82//101 104//136 84//102
f 80//96 101//137 102//138
f 78//104 103//135 82//101
f 107//134 112//139 108//140
f 104//136 106//141 102//108
f 103//135 108//140 104//136
f 102//138 105//142 106//143
f 112//139 109//144 110//145
f 106//143 109//146 110//147
f 105//142 111//148 107//134
f 108//140 110//145 106//141
f 81//107 113//149 116//103
f 83//105 116//103 115//100
f 79//150 115//100 114//151
f 77//113 114//97 79//150
f 88//111 118//114 86//110
f 79//150 120//120 83//105
f 83//105 119//122 88//111
f 86//110 117//152 118//114
f 37//1 38//52 4//2
f 38//4 4//2 8//5
f 39//6 8//5 6//7
f 40//8 37//1 2//3
f 7//9 5//14 11//10
f 8//5 28//41 26//12
f 10//13 9//15 11//10
f 5//14 11//10 9//15
f 42//17 15//21 13//18
f 1//16 9//15 10//13
f 15//21 19//31 17//22
f 44//23 43//28 16//24
f 41//19 13//18 14//26
f 43//28 16//32 15//21
f 20//29 24//35 23//30
f 16//32 20//29 19//31
f 14//25 16//24 20//29
f 13//18 17//22 18//33
f 21//34 23//30 24//35
f 18//33 20//29 24//37
f 17//22 21//34 22//36
f 19//31 23//30 21//34
f 25//38 29//48 31//39
f 6//7 8//5 28//41
f 4//2 26//12 25//38
f 2//3 25//38 27//40
f 31//43 32//47 36//44
f 28//41 32//47 30//46
f 27//42 28//41 32//47
f 26//12 30//46 29//48
f 36//44 35//51 33//49
f 30//46 34//50 33//49
f 29//48 33//49 35//51
f 32//47 36//44 34//50
f 5//14 1//16 37//1
f 7//9 39//6 40//8
f 3//20 7//53 39//6
f 1//16 3//20 38//52
f 12//11 43//28 42//17
f 3//20 41//19 44//27
f 7//9 12//11 43//28
f 10//13 42//17 41//19
f 45//54 47//70 48//55
f 47//57 48//76 52//58
f 51//60 49//62 50//61
f 49//62 45//54 46//56
f 51//60 56//67 55//63
f 52//58 48//76 58//64
f 54//66 53//68 55//63
f 49//62 55//63 53//68
f 56//67 68//85 67//69
f 45//54 53//68 54//66
f 59//71 63//81 64//72
f 50//74 52//58 60//65
f 48//76 46//56 57//77
f 46//56 50//74 59//75
f 64//72 63//81 61//78
f 58//80 62//79 61//78
f 57//77 61//78 63//81
f 60//65 58//64 62//82
f 66//83 70//88 72//84
f 54//66 67//69 65//86
f 51//60 66//83 68//85
f 47//57 51//59 66//83
f 70//88 74//93 76//89
f 65//86 69//90 70//88
f 67//69 71//91 69//90
f 68//85 72//84 71//91
f 73//92 75//94 76//89
f 69//90 73//92 74//93
f 71//91 75//94 73//92
f 72//84 76//89 75//94
f 113//95 78//104 80//96
f 114//97 80//96 84//98
f 115//100 116//103 82//101
f 116//103 113//149 78//104
f 83//105 88//111 87//106
f 84//102 104//136 102//108
f 86//110 85//112 87//106
f 81//107 87//106 85//112
f 118//114 117//152 89//115
f 77//113 79//150 86//110
f 91//116 89//115 93//118
f 120//120 90//124 92//121
f 117//123 89//115 90//124
f 119//122 92//121 91//125
f 96//126 100//130 99//127
f 92//121 96//126 95//119
f 90//124 94//128 96//126
f 89//115 93//118 94//128
f 97//129 99//127 100//130
f 94//128 98//131 100//130
f 93//118 97//129 98//131
f 95//119 93//118 97//129
f 101//133 105//142 107//134
f 82//101 103//135 104//136
f 80//96 78//104 101//137
f 78//104 101//133 103//135
f 107//134 111//148 112//139
f 104//136 108//140 106//141
f 103//135 107//134 108//140
f 102//138 101//137 105//142
f 112//139 111//148 109//144
f 106//143 105//142 109//146
f 105//142 109//144 111//148
f 108//140 112//139 110//145
f 81//107 77//113 113//149
f 83//105 81//107 116//103
f 79//150 83//105 115//100
f 77//113 113//95 114//97
f 88//111 119//122 118//114
f 79//150 117//123 120//120
f 83//105 120//120 119//122
f 86//110 79//150 117//152
