# Blender 3.4.0
# www.blender.org
o Bible_on_lectern
v -0.114279 -0.187196 -0.389820
v 0.114353 -0.180845 -0.389820
v 0.114353 -0.187196 0.219866
v -0.114279 -0.182433 0.219866
v -0.025367 -0.175764 -0.186592
v 0.025441 -0.183385 -0.186592
v 0.076248 -0.180845 -0.084977
v 0.025441 -0.198627 -0.084977
v -0.025367 -0.199898 -0.084977
v -0.076174 -0.172906 -0.064654
v -0.025367 -0.183385 0.016637
v 0.025441 -0.175764 0.016637
v 0.076248 -0.177669 -0.034170
v 0.025441 -0.199898 -0.034170
v -0.381017 0.243306 0.079821
v 0.381091 0.248418 0.090045
v 0.190564 0.174806 0.105550
v 0.381091 -0.267080 0.337143
v 0.190564 -0.206248 0.296077
v -0.381017 -0.264524 0.342256
v -0.190490 -0.206248 0.296077
v -0.190490 0.174806 0.105550
v -0.175248 -0.130038 -0.389820
v -0.190490 -0.206248 -0.466031
v -0.182869 -0.130038 0.172765
v -0.190490 0.174806 -0.466031
v -0.180964 0.098595 -0.389820
v -0.171437 0.098595 0.058449
v 0.190564 0.174806 -0.466031
v 0.190564 -0.206248 -0.466031
v 0.182943 -0.130038 0.172765
v 0.171511 0.098595 0.058449
v 0.181037 0.098595 -0.389820
v 0.175322 -0.130038 -0.389820
v -0.114279 0.155753 -0.389820
v -0.114279 0.167184 0.029339
v 0.114353 0.165279 -0.389820
v 0.114353 0.159563 0.029339
v -0.045690 -0.200805 -0.034170
v -0.294712 0.275851 0.178721
v 0.001940 0.272084 0.170950
v -0.036259 0.289848 0.206373
v -0.225437 0.299995 0.226667
v -0.127316 0.307925 0.242527
v -0.016157 -0.150816 0.407032
v -0.109324 -0.126395 0.455870
v -0.209170 -0.129758 0.449145
v -0.295862 -0.156410 0.395844
v -0.001648 -0.163185 0.382382
v 0.256967 0.293437 0.213707
v 0.089149 0.303028 0.232888
v 0.180244 0.306415 0.239662
v 0.304467 0.274717 0.176241
v -0.333234 0.267865 0.162485
v 0.301876 -0.159081 0.390330
v 0.058918 -0.136261 0.436294
v 0.230295 -0.132566 0.443684
v 0.145786 -0.125523 0.457771
v -0.334746 -0.166088 0.376563
v -0.381017 -0.178453 0.351832
v -0.381017 0.248930 0.124615
v 0.338449 0.266706 0.160166
v 0.336937 -0.164929 0.378882
v 0.381091 0.248930 0.124615
v 0.381091 -0.186568 0.335602
vn -0.1479 -0.9860 -0.0770
vn 0.0400 -0.9992 0.0050
vn 0.3271 -0.9345 -0.1402
vn -0.5203 -0.8309 -0.1973
vn 0.0384 -0.9985 0.0394
vn 0.0277 -0.9986 0.0440
vn 0.2946 -0.9556 0.0075
vn -0.1246 -0.9910 -0.0499
vn -0.8045 -0.3837 0.4534
vn 0.1480 -0.9866 0.0694
vn -0.0208 -0.9987 -0.0471
vn -0.0651 -0.9975 -0.0276
vn -0.5540 -0.8309 0.0519
vn 0.3675 -0.8401 0.3990
vn -0.0830 -0.9965 -0.0104
vn 0.0146 -0.2422 -0.9701
vn 0.0932 -0.4304 -0.8978
vn 0.0499 -0.4467 -0.8933
vn -0.0074 -0.5754 -0.8179
vn -0.0000 -0.6211 -0.7838
vn -0.0747 -0.4578 -0.8859
vn -0.0400 -0.4469 -0.8937
vn -0.0000 -0.3516 -0.9361
vn 0.0075 0.4322 0.9017
vn -0.0150 0.4590 0.8883
vn -0.9779 0.2088 -0.0132
vn -0.9950 0.0995 -0.0000
vn -0.9950 -0.0445 -0.0890
vn -0.9806 -0.0000 0.1961
vn -0.9947 -0.0249 0.0995
vn -0.9923 -0.1240 -0.0000
vn -0.9669 -0.2544 0.0205
vn -0.9627 -0.0810 -0.2583
vn -0.0000 -0.0000 -1.0000
vn 0.9627 -0.0810 -0.2583
vn 0.9669 -0.2544 0.0205
vn 0.9923 -0.1240 -0.0000
vn 0.9947 -0.0249 0.0995
vn 0.9806 -0.0000 0.1961
vn 0.9779 0.2088 -0.0132
vn 0.9950 0.0995 -0.0000
vn 0.9950 -0.0445 -0.0890
vn -0.3251 -0.9456 -0.0099
vn 0.0261 -0.9402 0.3395
vn -0.0000 -0.9701 0.2425
vn 0.2354 -0.9719 0.0076
vn 0.2983 -0.9545 -0.0000
vn -0.0198 -0.9485 -0.3162
vn -0.0000 -0.9701 -0.2425
vn -0.2425 -0.9701 -0.0000
vn 0.2671 0.9633 -0.0263
vn 0.0995 0.9950 -0.0000
vn -0.0000 0.9950 -0.0995
vn -0.0400 0.9592 0.2798
vn -0.0000 0.9923 0.1240
vn -0.1107 0.9938 0.0136
vn -0.1961 0.9806 -0.0000
vn 0.0324 0.9733 -0.2271
vn 0.9995 -0.0250 0.0212
vn 0.9990 0.0432 -0.0135
vn -0.0416 0.9990 0.0136
vn 0.0333 0.9991 -0.0272
vn -0.9995 -0.0250 0.0212
vn -0.9990 0.0432 -0.0135
vn -0.1444 -0.9627 -0.2287
vn 0.0247 -0.9886 -0.1483
vn 0.0250 -0.9997 -0.0079
vn 0.0128 -0.9996 -0.0250
vn 0.0121 -0.9474 0.3200
vn 0.1343 -0.8951 0.4252
vn 0.3303 -0.9436 -0.0236
vn 0.4002 -0.9147 0.0572
vn -0.5258 -0.8203 -0.2250
vn -0.0004 0.8937 -0.4486
vn -0.0003 0.8933 -0.4494
vn -0.0000 0.8944 -0.4472
vn 0.5056 0.3765 0.7763
vn -0.0751 0.4371 0.8963
vn -0.1778 0.4471 0.8766
vn -0.5665 0.3619 0.7404
vn 0.8849 0.1976 0.4217
vn 0.7200 0.3145 0.6186
vn 0.4057 0.4165 0.8136
vn -0.6125 0.3561 0.7057
vn -0.0000 0.8946 -0.4470
vn 0.3442 0.4139 0.8428
vn -0.0000 -0.8944 0.4472
vn -0.4251 0.4072 0.8084
vn 0.0004 -0.8948 0.4464
vn 0.0001 -0.8955 0.4452
vn -0.7053 0.3144 0.6353
vn -0.6217 0.3639 0.6936
vn -0.0829 0.4545 0.8869
vn 0.6613 0.3288 0.6742
vn 0.3538 0.4271 0.8321
vn -0.2664 0.4200 0.8675
vn 0.1832 0.4314 0.8833
vn 0.6397 0.3337 0.6924
vn -0.4851 0.3882 0.7835
vn -0.5130 0.3812 0.7691
vn -0.6631 0.3514 0.6610
vn 0.4673 0.3983 0.7893
vn 0.6818 0.3287 0.6535
vn 0.7387 0.2939 0.6066
vn -0.0000 0.8946 -0.4468
vn -0.0000 0.8944 -0.4473
vn -0.0000 0.8950 -0.4460
vn -0.0002 0.8975 -0.4411
vn -0.0238 -0.4693 -0.8827
vn -0.0000 -0.4360 -0.8999
vn -0.0000 -0.8945 0.4470
vn -0.0000 -0.8938 0.4485
vn -0.0001 -0.8937 0.4487
vn 0.0001 -0.8904 0.4552
s 0
f 5//1 2//1 6//1
f 6//2 2//2 7//2
f 6//3 7//3 8//3
f 9//4 10//4 5//4
f 5//5 10//5 1//5
f 5//6 1//6 2//6
f 1//7 10//7 4//7
f 4//8 10//8 11//8
f 11//9 10//9 39//9
f 11//10 12//10 4//10
f 4//11 12//11 3//11
f 3//12 12//12 13//12
f 3//13 13//13 7//13
f 12//14 14//14 13//14
f 2//15 3//15 7//15
f 15//16 16//16 17//16
f 17//17 16//17 18//17
f 17//18 18//18 19//18
f 19//19 18//19 20//19
f 19//20 20//20 21//20
f 21//21 20//21 15//21
f 21//22 15//22 22//22
f 22//23 15//23 17//23
f 18//24 16//24 20//24
f 20//25 16//25 15//25
f 23//26 24//26 25//26
f 25//27 24//27 21//27
f 25//28 21//28 22//28
f 24//29 23//29 26//29
f 26//30 23//30 27//30
f 26//31 27//31 22//31
f 22//32 27//32 28//32
f 22//33 28//33 25//33
f 26//34 29//34 24//34
f 24//34 29//34 30//34
f 31//35 32//35 17//35
f 17//36 32//36 33//36
f 17//37 33//37 29//37
f 29//38 33//38 34//38
f 29//39 34//39 30//39
f 30//40 34//40 31//40
f 30//41 31//41 19//41
f 19//42 31//42 17//42
f 3//43 2//43 30//43
f 30//44 2//44 1//44
f 30//45 1//45 24//45
f 24//46 1//46 4//46
f 24//47 4//47 21//47
f 21//48 4//48 3//48
f 21//49 3//49 19//49
f 19//50 3//50 30//50
f 35//51 26//51 36//51
f 36//52 26//52 22//52
f 36//53 22//53 17//53
f 35//54 37//54 26//54
f 26//55 37//55 29//55
f 29//56 37//56 38//56
f 29//57 38//57 17//57
f 17//58 38//58 36//58
f 33//59 32//59 34//59
f 34//60 32//60 31//60
f 37//61 35//61 38//61
f 38//62 35//62 36//62
f 27//63 23//63 28//63
f 28//64 23//64 25//64
f 5//65 6//65 9//65
f 9//66 6//66 8//66
f 9//67 8//67 39//67
f 39//68 8//68 14//68
f 39//69 14//69 11//69
f 11//70 14//70 12//70
f 8//71 7//71 14//71
f 14//72 7//72 13//72
f 9//73 39//73 10//73
f 41//74 40//74 42//74
f 43//75 42//75 40//75
f 43//76 44//76 42//76
f 45//77 42//77 46//77
f 46//78 44//78 47//78
f 47//79 44//79 43//79
f 47//80 43//80 48//80
f 41//81 45//81 49//81
f 42//82 45//82 41//82
f 44//83 46//83 42//83
f 40//84 48//84 43//84
f 50//85 41//85 51//85
f 50//76 51//76 52//76
f 53//85 41//85 50//85
f 63//86 53//86 55//86
f 47//87 45//87 46//87
f 48//87 45//87 47//87
f 54//88 48//88 40//88
f 49//89 55//89 56//89
f 55//90 57//90 56//90
f 56//87 57//87 58//87
f 56//91 41//91 49//91
f 41//92 56//92 51//92
f 51//93 58//93 52//93
f 53//94 50//94 55//94
f 52//95 57//95 50//95
f 58//96 51//96 56//96
f 57//97 52//97 58//97
f 55//98 50//98 57//98
f 48//99 54//99 59//99
f 59//100 54//100 60//100
f 60//101 54//101 61//101
f 53//102 63//102 62//102
f 62//103 63//103 64//103
f 64//104 63//104 65//104
f 61//76 54//76 64//76
f 64//105 54//105 41//105
f 41//106 62//106 64//106
f 62//107 41//107 53//107
f 41//108 54//108 40//108
f 60//109 61//109 65//109
f 65//110 61//110 64//110
f 59//87 60//87 65//87
f 49//111 59//111 65//111
f 49//112 45//112 59//112
f 59//113 45//113 48//113
f 49//87 65//87 63//87
f 63//114 55//114 49//114
