# Blender 3.4.0
# www.blender.org
o uploads_files_2400616_bench
v 0.441589 -0.110730 0.105929
v 0.441589 -0.012563 0.105929
v 0.441589 -0.014466 0.168377
v 0.441589 -0.110730 0.168377
v 0.394826 -0.012563 0.105929
v 0.394826 -0.014466 0.168377
v 0.394826 -0.110730 0.105929
v 0.394826 -0.110730 0.168377
v 0.394826 -0.003046 0.083379
v 0.394826 -0.003046 -0.285209
v 0.394826 -0.110730 -0.285209
v 0.394826 -0.110730 0.083379
v 0.395514 -0.018985 0.176253
v 0.440901 -0.018985 0.176253
v 0.441589 -0.003046 -0.285209
v 0.441589 -0.110730 -0.285209
v 0.441589 -0.110730 0.083379
v 0.441589 0.022077 -0.285209
v 0.441589 0.119208 -0.285209
v 0.441589 0.119207 0.074787
v 0.441589 0.022077 0.074071
v 0.441589 -0.003046 0.083379
v 0.441806 0.128800 -0.278267
v 0.441432 0.128800 0.067844
v 0.394826 0.022077 0.074071
v 0.394826 0.119207 0.074787
v 0.394826 0.119208 -0.285209
v 0.394826 0.022077 -0.285209
v 0.395567 0.128800 -0.278267
v 0.395538 0.139763 -0.254070
v 0.441835 0.139763 -0.254070
v 0.395567 0.128800 0.067844
v 0.441461 0.139763 0.043648
v 0.395538 0.139763 0.043648
v 0.440901 -0.106211 0.176253
v 0.439732 -0.093686 0.184129
v 0.396370 -0.093686 0.184129
v 0.395514 -0.106211 0.176253
v 0.398898 -0.077109 0.189857
v 0.398898 -0.048087 0.189857
v 0.396370 -0.031510 0.184129
v 0.439732 -0.031510 0.184129
v 0.438141 -0.077109 0.189857
v 0.438141 -0.048087 0.189857
v 0.418517 -0.100590 -0.121500
v 0.418517 -0.048788 -0.121500
v 0.418517 -0.048788 0.076697
v 0.418517 -0.100590 0.076697
v -0.407445 -0.048788 -0.121500
v -0.407445 -0.048788 0.076697
v -0.407445 -0.100590 -0.121500
v -0.407445 -0.100590 0.076697
v -0.407445 -0.048788 -0.150713
v -0.407445 -0.100590 -0.150713
v -0.427924 -0.027187 0.076697
v 0.438997 -0.027187 0.076697
v 0.418517 -0.048788 -0.150713
v 0.418517 -0.100590 -0.150713
v -0.407445 0.125639 -0.145314
v 0.418517 0.125639 -0.145314
v -0.427924 -0.108708 0.076697
v -0.427924 -0.108708 0.107127
v -0.427924 -0.027187 0.107127
v 0.438997 -0.108708 0.076697
v 0.438997 -0.108708 0.107127
v 0.438997 -0.027187 0.107127
v -0.407445 0.123218 -0.116159
v -0.403106 0.130393 -0.118407
v -0.403106 0.132386 -0.142412
v 0.418517 0.123218 -0.116159
v -0.394062 0.135529 -0.123555
v -0.394062 0.136631 -0.136823
v 0.414179 0.130393 -0.118407
v 0.414179 0.132386 -0.142412
v 0.405135 0.135529 -0.123555
v 0.405135 0.136631 -0.136823
v -0.399020 -0.110730 0.105929
v -0.399020 -0.012563 0.105929
v -0.399020 -0.014466 0.168377
v -0.399020 -0.110730 0.168377
v -0.445784 -0.012563 0.105929
v -0.445784 -0.014466 0.168377
v -0.445784 -0.110730 0.105929
v -0.445784 -0.110730 0.168377
v -0.445784 -0.003046 0.083379
v -0.445784 -0.003046 -0.285209
v -0.445784 -0.110730 -0.285209
v -0.445784 -0.110730 0.083379
v -0.445095 -0.018985 0.176253
v -0.399708 -0.018985 0.176253
v -0.399020 -0.003046 -0.285209
v -0.399020 -0.110730 -0.285209
v -0.399020 -0.110730 0.083379
v -0.399020 0.022077 -0.285209
v -0.399020 0.119207 -0.285209
v -0.399020 0.119207 0.074787
v -0.399020 0.022077 0.074071
v -0.399020 -0.003046 0.083379
v -0.398803 0.128800 -0.278267
v -0.399178 0.128800 0.067844
v -0.445784 0.022077 0.074071
v -0.445784 0.119207 0.074787
v -0.445784 0.119207 -0.285209
v -0.445784 0.022077 -0.285209
v -0.445042 0.128800 -0.278267
v -0.445071 0.139763 -0.254070
v -0.398774 0.139763 -0.254070
v -0.445042 0.128800 0.067844
v -0.399148 0.139763 0.043648
v -0.445071 0.139763 0.043648
v -0.399708 -0.106211 0.176253
v -0.400877 -0.093686 0.184129
v -0.444239 -0.093686 0.184129
v -0.445095 -0.106211 0.176253
v -0.441711 -0.077110 0.189857
v -0.441711 -0.048087 0.189857
v -0.444239 -0.031511 0.184129
v -0.400877 -0.031511 0.184129
v -0.402468 -0.077110 0.189857
v -0.402468 -0.048087 0.189857
vn 1.0000 -0.0000 -0.0000
vn -0.0000 0.9995 0.0305
vn -1.0000 -0.0000 -0.0000
vn -0.0000 -1.0000 -0.0000
vn -0.0000 0.8674 0.4977
vn -0.0000 -0.0000 -1.0000
vn 0.9997 -0.0234 0.0011
vn 0.9999 0.0164 -0.0000
vn -0.0000 -0.0074 1.0000
vn -0.0000 0.9109 -0.4127
vn -0.0000 0.5863 -0.8101
vn -0.9970 0.0771 -0.0000
vn -0.0000 0.5863 0.8101
vn -0.0000 1.0000 -0.0000
vn -1.0000 -0.0027 -0.0000
vn -0.0000 0.9109 0.4127
vn 1.0000 -0.0054 0.0013
vn 1.0000 -0.0003 0.0011
vn -0.0000 -0.5323 0.8466
vn -0.9962 -0.0000 0.0871
vn 0.9962 -0.0000 0.0871
vn -0.0000 -0.8674 0.4977
vn -0.9149 -0.0000 0.4037
vn -0.0000 0.5323 0.8466
vn -0.9941 -0.0000 0.1081
vn 0.9892 -0.0000 0.1467
vn -0.0000 -0.0000 1.0000
vn 0.9635 -0.0000 0.2677
vn -0.0000 -0.3266 0.9452
vn -0.0000 0.3266 0.9452
vn -0.0000 0.9213 0.3888
vn -0.0000 0.3474 0.9377
vn -0.0000 0.0309 -0.9995
vn -0.8488 0.5269 0.0438
vn -0.0000 -0.0310 0.9995
vn -0.4606 0.8846 0.0735
vn -0.0000 0.2990 0.9543
vn 0.8488 0.5269 0.0438
vn -0.0000 0.3952 -0.9186
vn -0.0000 0.9966 0.0828
vn -0.0000 0.7079 0.7063
vn 0.4605 0.8846 0.0735
vn 0.4606 0.8846 0.0735
vn -0.0000 0.7964 -0.6048
s 0
f 1//1 2//1 3//1
f 1//1 3//1 4//1
f 2//2 5//2 6//2
f 2//2 6//2 3//2
f 5//3 7//3 8//3
f 5//3 8//3 6//3
f 7//4 1//4 4//4
f 7//4 4//4 8//4
f 9//3 10//3 11//3
f 9//3 11//3 12//3
f 6//5 13//5 14//5
f 6//5 14//5 3//5
f 15//6 16//6 11//6
f 15//6 11//6 10//6
f 12//4 11//4 16//4
f 12//4 16//4 17//4
f 18//1 19//1 20//1
f 18//1 20//1 21//1
f 17//1 16//1 15//1
f 17//1 15//1 22//1
f 19//7 23//7 24//7
f 19//8 24//8 20//8
f 25//3 26//3 27//3
f 25//3 27//3 28//3
f 21//9 20//9 26//9
f 21//9 26//9 25//9
f 28//6 27//6 19//6
f 28//6 19//6 18//6
f 29//10 30//10 31//10
f 29//10 31//10 23//10
f 27//11 29//11 23//11
f 27//11 23//11 19//11
f 26//12 32//12 29//12
f 26//12 29//12 27//12
f 20//13 24//13 32//13
f 20//13 32//13 26//13
f 33//14 31//14 30//14
f 33//14 30//14 34//14
f 32//15 34//15 30//15
f 32//15 30//15 29//15
f 24//16 33//16 34//16
f 24//16 34//16 32//16
f 23//17 31//17 33//17
f 23//18 33//18 24//18
f 35//19 36//19 37//19
f 35//19 37//19 38//19
f 8//20 38//20 13//20
f 8//20 13//20 6//20
f 3//21 14//21 35//21
f 3//21 35//21 4//21
f 4//22 35//22 38//22
f 4//22 38//22 8//22
f 37//23 39//23 40//23
f 37//23 40//23 41//23
f 13//24 41//24 42//24
f 13//24 42//24 14//24
f 38//25 37//25 41//25
f 38//25 41//25 13//25
f 14//26 42//26 36//26
f 14//26 36//26 35//26
f 40//27 39//27 43//27
f 40//27 43//27 44//27
f 42//28 44//28 43//28
f 42//28 43//28 36//28
f 36//29 43//29 39//29
f 36//29 39//29 37//29
f 41//30 40//30 44//30
f 41//30 44//30 42//30
f 12//4 17//4 1//4
f 12//4 1//4 7//4
f 9//3 12//3 7//3
f 9//3 7//3 5//3
f 22//31 9//31 5//31
f 22//31 5//31 2//31
f 17//1 22//1 2//1
f 17//1 2//1 1//1
f 10//6 28//6 18//6
f 10//6 18//6 15//6
f 22//32 21//32 25//32
f 22//32 25//32 9//32
f 9//3 25//3 28//3
f 9//3 28//3 10//3
f 15//1 18//1 21//1
f 15//1 21//1 22//1
f 45//1 46//1 47//1
f 45//1 47//1 48//1
f 46//14 49//14 50//14
f 46//14 50//14 47//14
f 49//3 51//3 52//3
f 49//3 52//3 50//3
f 51//4 45//4 48//4
f 51//4 48//4 52//4
f 49//3 53//3 54//3
f 49//3 54//3 51//3
f 50//6 55//6 56//6
f 50//6 56//6 47//6
f 57//6 58//6 54//6
f 57//6 54//6 53//6
f 51//4 54//4 58//4
f 51//4 58//4 45//4
f 53//33 59//33 60//33
f 53//33 60//33 57//33
f 45//1 58//1 57//1
f 45//1 57//1 46//1
f 61//3 62//3 63//3
f 61//3 63//3 55//3
f 52//6 61//6 55//6
f 52//6 55//6 50//6
f 47//6 56//6 64//6
f 47//6 64//6 48//6
f 48//6 64//6 61//6
f 48//6 61//6 52//6
f 63//27 62//27 65//27
f 63//27 65//27 66//27
f 56//1 66//1 65//1
f 56//1 65//1 64//1
f 64//4 65//4 62//4
f 64//4 62//4 61//4
f 55//14 63//14 66//14
f 55//14 66//14 56//14
f 67//34 68//34 69//34
f 67//34 69//34 59//34
f 57//1 60//1 70//1
f 57//1 70//1 46//1
f 49//3 67//3 59//3
f 49//3 59//3 53//3
f 46//35 70//35 67//35
f 46//35 67//35 49//35
f 68//36 71//36 72//36
f 68//36 72//36 69//36
f 70//37 73//37 68//37
f 70//37 68//37 67//37
f 60//38 74//38 73//38
f 60//38 73//38 70//38
f 59//39 69//39 74//39
f 59//39 74//39 60//39
f 75//40 76//40 72//40
f 75//40 72//40 71//40
f 73//41 75//41 71//41
f 73//41 71//41 68//41
f 74//42 76//42 75//42
f 74//43 75//43 73//43
f 69//44 72//44 76//44
f 69//44 76//44 74//44
f 77//1 78//1 79//1
f 77//1 79//1 80//1
f 78//2 81//2 82//2
f 78//2 82//2 79//2
f 81//3 83//3 84//3
f 81//3 84//3 82//3
f 83//4 77//4 80//4
f 83//4 80//4 84//4
f 85//3 86//3 87//3
f 85//3 87//3 88//3
f 82//5 89//5 90//5
f 82//5 90//5 79//5
f 91//6 92//6 87//6
f 91//6 87//6 86//6
f 88//4 87//4 92//4
f 88//4 92//4 93//4
f 94//1 95//1 96//1
f 94//1 96//1 97//1
f 93//1 92//1 91//1
f 93//1 91//1 98//1
f 95//7 99//7 100//7
f 95//8 100//8 96//8
f 101//3 102//3 103//3
f 101//3 103//3 104//3
f 97//9 96//9 102//9
f 97//9 102//9 101//9
f 104//6 103//6 95//6
f 104//6 95//6 94//6
f 105//10 106//10 107//10
f 105//10 107//10 99//10
f 103//11 105//11 99//11
f 103//11 99//11 95//11
f 102//12 108//12 105//12
f 102//12 105//12 103//12
f 96//13 100//13 108//13
f 96//13 108//13 102//13
f 109//14 107//14 106//14
f 109//14 106//14 110//14
f 108//15 110//15 106//15
f 108//15 106//15 105//15
f 100//16 109//16 110//16
f 100//16 110//16 108//16
f 99//17 107//17 109//17
f 99//18 109//18 100//18
f 111//19 112//19 113//19
f 111//19 113//19 114//19
f 84//20 114//20 89//20
f 84//20 89//20 82//20
f 79//21 90//21 111//21
f 79//21 111//21 80//21
f 80//22 111//22 114//22
f 80//22 114//22 84//22
f 113//23 115//23 116//23
f 113//23 116//23 117//23
f 89//24 117//24 118//24
f 89//24 118//24 90//24
f 114//25 113//25 117//25
f 114//25 117//25 89//25
f 90//26 118//26 112//26
f 90//26 112//26 111//26
f 116//27 115//27 119//27
f 116//27 119//27 120//27
f 118//28 120//28 119//28
f 118//28 119//28 112//28
f 112//29 119//29 115//29
f 112//29 115//29 113//29
f 117//30 116//30 120//30
f 117//30 120//30 118//30
f 88//4 93//4 77//4
f 88//4 77//4 83//4
f 85//3 88//3 83//3
f 85//3 83//3 81//3
f 98//31 85//31 81//31
f 98//31 81//31 78//31
f 93//1 98//1 78//1
f 93//1 78//1 77//1
f 86//6 104//6 94//6
f 86//6 94//6 91//6
f 98//32 97//32 101//32
f 98//32 101//32 85//32
f 85//3 101//3 104//3
f 85//3 104//3 86//3
f 91//1 94//1 97//1
f 91//1 97//1 98//1
